<?xml version="1.0" encoding="utf-8"?>
<!-- Generator: Adobe Illustrator 25.2.0, SVG Export Plug-In . SVG Version: 6.00 Build 0)  -->
<svg version="1.1" xmlns="http://www.w3.org/2000/svg" xmlns:xlink="http://www.w3.org/1999/xlink" x="0px" y="0px"
	 viewBox="0 0 500 500" style="enable-background:new 0 0 500 500;" xml:space="preserve">
<style type="text/css">
	.st0{fill:#D9F0F4;}
	.st1{fill:none;stroke:#343F52;stroke-width:14.9429;stroke-miterlimit:10;}
	.st2{fill:#343F52;}
	.st3{fill:#415E6F;}
	.st4{fill:#56788B;}
	.st5{fill:#90ABBD;}
	.st6{display:none;fill:#90ABBD;}
	.st7{display:none;fill:none;stroke:#3A4455;stroke-width:5;stroke-miterlimit:10;}
	.st8{fill:#F4C1C6;}
	.st9{fill:none;stroke:#3A4455;stroke-width:7.4714;stroke-miterlimit:10;}
	.st10{fill:#EDF6F7;}
	.st11{fill:none;stroke:#343F52;stroke-width:20.3644;stroke-miterlimit:10;}
	.st12{fill:#FCD49B;}
	.st13{fill:none;stroke:#3A4455;stroke-width:8.3406;stroke-miterlimit:10;}
	.st14{fill:#3A4455;}
	.st15{fill:none;stroke:#3A4455;stroke-width:5.2032;stroke-miterlimit:10;}
	.st16{fill:#FCD49B;stroke:#3A4455;stroke-width:2.7802;stroke-miterlimit:10;}
	.st17{display:none;}
	.st18{display:inline;}
	.st19{display:inline;fill:none;stroke:#A6D8C8;stroke-width:25.6827;stroke-miterlimit:10;}
	.st20{fill:none;stroke:#3A4455;stroke-width:10;stroke-miterlimit:10;}
	.st21{fill:none;stroke:#3A4455;stroke-width:7.6747;stroke-miterlimit:10;}
	.st22{display:inline;fill:#3A4455;}
	.st23{fill:#76CCF6;}
	.st24{fill:none;stroke:#3A4455;stroke-width:11.4962;stroke-miterlimit:10;}
	.st25{fill:#A6D8C8;}
	.st26{fill:none;stroke:#343F52;stroke-width:15.5332;stroke-miterlimit:10;}
	.st27{fill:none;stroke:#A6D8C8;stroke-width:16.5278;stroke-miterlimit:10;}
	.st28{fill:#FFFFFF;stroke:#343F52;stroke-width:15.5332;stroke-miterlimit:10;}
</style>
<g id="Layer_1">
	<g>
		<path class="st0" d="M346.48,461.01H149.4c-9.59,0-17.44-7.85-17.44-17.44V59.85c0-9.59,7.85-17.44,17.44-17.44h197.07
			c9.59,0,17.44,7.85,17.44,17.44v383.72C363.91,453.16,356.07,461.01,346.48,461.01z"/>
		<path class="st1" d="M332.37,465.67H163.02c-19.26,0-34.86-15.61-34.86-34.86V73.93c0-19.26,15.61-34.86,34.86-34.86h169.35
			c19.26,0,34.86,15.61,34.86,34.86v356.88C367.24,450.06,351.63,465.67,332.37,465.67z"/>
		<g>
			<path class="st2" d="M303.13,73.53c-36.86,0-73.71,0-110.57,0c-0.92-0.45-2.23-1.23-3.45-2.59c-1.99-2.2-2.74-4.78-5.6-16.26
				c-0.6-2.39-1.11-4.47-2.8-6.24c-1.39-1.45-2.99-2.09-4.11-2.39c47.4,0.07,94.79,0.13,142.19,0.2c-1.29,0.18-3.09,0.68-4.53,2.19
				c-1.52,1.61-1.81,3.49-2.38,6.24c-1.38,6.63-2.57,12.09-5.72,15.99C305.03,72.09,303.87,73.01,303.13,73.53z"/>
			<path class="st3" d="M279.61,60.43H216.1c-3.35,0-6.1-2.74-6.1-6.1v-1.39c0-3.35,2.74-6.1,6.1-6.1h63.52c3.35,0,6.1,2.74,6.1,6.1
				v1.39C285.71,57.69,282.97,60.43,279.61,60.43z"/>
		</g>
		<path class="st4" d="M320.85,434.29H173.88c-2.95,0-5.37-2.42-5.37-5.37v0c0-2.95,2.42-5.37,5.37-5.37h146.98
			c2.95,0,5.37,2.42,5.37,5.37v0C326.23,431.87,323.81,434.29,320.85,434.29z"/>
		<path class="st5" d="M283.97,406.38h-70.91c-1.87,0-3.39-1.53-3.39-3.39v-1.92c0-1.87,1.53-3.39,3.39-3.39h70.91
			c1.87,0,3.39,1.53,3.39,3.39v1.92C287.37,404.85,285.84,406.38,283.97,406.38z"/>
		<path class="st5" d="M283.19,388.74h-69.2c-1.77,0-3.22-1.45-3.22-3.22v-1.6c0-1.77,1.45-3.22,3.22-3.22h69.2
			c1.77,0,3.22,1.45,3.22,3.22v1.6C286.4,387.29,284.96,388.74,283.19,388.74z"/>
		<path class="st6" d="M270.67,371.13h-43.93c-1.4,0-2.55-1.15-2.55-2.55v-2.68c0-1.4,1.15-2.55,2.55-2.55h43.93
			c1.4,0,2.55,1.15,2.55,2.55v2.68C273.22,369.98,272.07,371.13,270.67,371.13z"/>
	</g>
	<path class="st7" d="M195.97,250.03c0-6.69-0.08-7.85,0.97-8.77c1.14-1,2.49-0.75,6.45-0.65c3.8,0.1,6.94,0,9.16-0.13
		c1.83-4.13,3.66-8.26,5.48-12.39c-4.53-4.36-7.96-7.85-9.77-9.82c-0.35-0.38-1.03-1.14-1.06-2.18c-0.04-1.26,0.94-2.07,2.37-3.58
		c0.85-0.9,1.74-1.74,2.65-2.58"/>
	<path class="st7" d="M268.29,211.36c2.43,1.06,4.86,2.13,7.29,3.19c3.24-3.47,6.11-6.09,8.26-7.94c1.59-1.36,2.57-2.11,3.92-2.13
		c1.38-0.02,2.29,0.74,6.34,4.84c4.44,4.49,5.13,5.37,5.08,6.68c-0.05,1.33-0.83,2.23-2.66,4.16c-1.99,2.1-4.62,4.75-7.84,7.74
		c1.13,2.36,2.25,4.72,3.38,7.08"/>
	<g>
		<path class="st2" d="M221.73,279.11l-73.69-73.69c-4.98-4.98-4.98-13.14,0-18.12l0,0c4.98-4.98,13.14-4.98,18.12,0l73.69,73.69
			c4.98,4.98,4.98,13.14,0,18.12h0C234.87,284.09,226.71,284.09,221.73,279.11z"/>
		<path class="st8" d="M310.31,221.97c0.93,1.38,1.97,3.2,2.86,5.45c0.93,2.36,1.41,4.5,1.67,6.19c6.27,0.17,11.28,0.1,14.62,0
			c5.12-0.15,6.89-0.35,8.54,0.97c0.86,0.7,2.09,2.14,2.35,12.37c0.27,10.87-1.03,12.49-1.89,13.24c-1.57,1.37-3.36,1.35-7.57,1.43
			c-3.76,0.07-9.29,0.2-16.26,0.52c-2.45,6.04-4.9,12.08-7.35,18.12c1.93,2.21,4.85,5.47,8.59,9.27c5.1,5.18,7.1,6.67,7.09,9.27
			c-0.01,1.57-0.75,2.62-6.75,8.52c-8.46,8.33-10.02,9.25-11.93,9.07c-1.7-0.16-2.72-1.11-6.54-5.04
			c-2.96-3.05-6.43-6.68-10.29-10.84c-6.29,2.66-12.59,5.32-18.88,7.98c-0.28,6.37-0.34,11.47-0.34,14.93
			c0,5.19,0.12,6.91-1.22,8.48c-1.19,1.39-2.87,1.87-13.23,1.89c-10.21,0.01-11.89-0.45-13.02-1.84c-1.33-1.64-1-3.46-0.75-8.38
			c0.18-3.52,0.32-8.59,0.06-14.87c-6.31-2.61-12.63-5.22-18.94-7.83c-2.06,2.07-5.5,5.53-9.88,9.88c-4.38,4.35-5.68,5.59-7.7,5.66
			c-2.12,0.07-3.25-1.21-9.95-7.91c-7.07-7.06-8.38-8.21-8.25-10.29c0.14-2.26,1.83-3.43,6.14-7.5c4.12-3.9,7.33-7.34,9.54-9.82
			c-2.43-6.29-4.86-12.59-7.29-18.88c-9.39,0.18-16.71,0.11-20.71-0.05c-0.77-0.03-2.3-0.12-3.43-1.18
			c-1.37-1.29-1.19-3.18-1.28-6.29c-0.15-5.3,0.56-10.6,0.37-15.9c-0.03-0.75-0.1-2.41,0.96-3.43c0.91-0.88,2.23-0.87,2.71-0.87
			c2.86,0,10.59-0.29,21.12-0.66c2.36-6.28,4.73-12.56,7.09-18.83c-3.83-4.08-6.89-7.35-8.9-9.5c-3.81-4.08-5.71-6.16-5.74-8.22
			c-0.03-1.75,0.8-2.92,7.23-9.48c7.06-7.21,8.46-8.25,10.42-8.16c1.86,0.09,3.46,1.59,6.59,4.58c4.71,4.49,8.43,8.09,10.8,10.4
			c6.42-2.51,12.84-5.02,19.26-7.53c-0.24-7.09,0.02-12.89,0.34-17.11c0.24-3.12,0.48-4.95,1.89-6.39c1.44-1.47,3.2-1.63,11.81-1.58
			c9.43,0.05,11.09,0.26,12.42,1.69c1.35,1.45,1.49,3.23,1.58,7.21c0.11,4.32,0.14,9.89-0.1,16.46c3.44,1.46,6.89,2.91,10.33,4.37
			c4.78,2.34,11.32,6.2,17.89,12.4C303.34,210.46,307.69,217.17,310.31,221.97z"/>
		<path class="st9" d="M191.24,190.5c2.55-2.34,5.19-4.6,7.54-7.13c0.51-0.55,1.63-1.78,3.1-1.75c1.26,0.02,2.19,0.96,2.53,1.3
			c2.02,2.02,7.7,7.28,15.4,14.46c6.11-2.77,12.22-5.53,18.33-8.3c0.17-5.6,0.33-10.07,0.43-13.01c0.19-5.58,0.32-8.39,1.75-9.87
			c1.22-1.25,2.63-1.49,11.81-1.59c10.09-0.11,11.82,0.15,13.13,1.6c1.25,1.38,1.33,3.57,1.42,7.9c0.15,6.5,0.24,11.68,0.29,14.99
			c2.68,1.17,5.36,2.35,8.05,3.52"/>
		<path class="st9" d="M310.54,227.92c1.31,2.74,2.61,5.48,3.92,8.22c2.86,0.08,7.56,0.17,13.45,0.14
			c7.9-0.04,10.41-0.27,12.28,1.63c1.71,1.73,1.65,4.88,1.46,11.1c-0.24,7.69-0.35,11.53-2.85,13.64
			c-1.61,1.36-3.31,1.44-10.31,1.55c-3.42,0.05-8.1,0.11-13.74,0.14c-1.49,4.13-3.41,8.63-5.91,13.31c-1.05,1.97-2.12,3.82-3.2,5.56
			c4.32,4.56,7.91,8.04,10.34,10.34c3.72,3.52,5.12,4.62,5.35,6.72c0.12,1.1-0.03,2.99-7.09,10.41c-7.49,7.88-9.55,8.1-10.7,8.03
			c-2.08-0.14-3.33-1.42-6.36-4.34c-2.71-2.61-6.71-6.43-11.86-11.13c-6,2.54-12,5.08-18,7.62c-0.2,2.93-0.44,7.29-0.48,12.63
			c-0.06,7.27,0.3,9.74-1.54,11.57c-1.12,1.11-2.38,1.32-10.8,1.25c-11.87-0.09-13.62-0.54-14.85-2.02
			c-1.09-1.32-1.14-2.7-1.06-8.19c0.06-4.25,0.17-9.27,0.39-14.94c-6.33-2.57-12.66-5.14-18.99-7.71c-4.7,4.3-8.35,7.87-10.8,10.32
			c-3.67,3.67-4.8,4.97-6.85,5.13c-1.82,0.14-3.35-0.7-10.69-8.02c-7.23-7.21-8.09-8.73-7.91-10.51c0.22-2.1,1.74-3.16,5.4-6.46
			c2.62-2.36,6.3-5.85,10.55-10.47c-2.62-6.31-5.23-12.62-7.85-18.93c-2.92,0.01-7.8,0.02-13.98,0c-6.18-0.02-7.97-0.06-9.45-1.45
			c-1.54-1.45-1.44-3.15-1.45-12.63"/>
		<path class="st2" d="M249.39,236.58l133.29-133.29c4.79-4.79,12.63-4.79,17.43,0l1.25,1.25c4.79,4.79,4.79,12.63,0,17.43
			L268.06,255.25c-4.79,4.79-12.63,4.79-17.43,0l-1.25-1.25C244.59,249.21,244.59,241.37,249.39,236.58z"/>
		<path class="st2" d="M283.42,274.78c1.32-1.87,0.94-4.39-0.68-5.66c-1.37-1.07-3.41-1.08-4.94,0.03
			c-12.39,11.36-31.54,9.8-41.31-2.05c-8.75-10.62-8.12-27.25,2.35-37.94c0.98-1.99,0.27-4.32-1.4-5.28
			c-1.33-0.77-3.11-0.59-4.43,0.48c-2.38,2.29-8.66,8.93-10.5,19.56c-2.53,14.67,5.34,25.63,6.82,27.61
			c1.39,1.73,10.62,12.87,26.69,13.67C271.65,285.99,281.79,276.38,283.42,274.78z"/>
	</g>
</g>
<g id="Layer_2">
</g>
<g id="Layer_3">
</g>
<g id="Layer_4">
</g>
</svg>
