<?xml version="1.0" encoding="utf-8"?>
<!-- Generator: Adobe Illustrator 25.2.0, SVG Export Plug-In . SVG Version: 6.00 Build 0)  -->
<svg version="1.1" xmlns="http://www.w3.org/2000/svg" xmlns:xlink="http://www.w3.org/1999/xlink" x="0px" y="0px"
	 viewBox="0 0 500 500" style="enable-background:new 0 0 500 500;" xml:space="preserve">
<style type="text/css">
	.st0{fill:#D9F0F4;}
	.st1{fill:none;stroke:#343F52;stroke-width:14.9429;stroke-miterlimit:10;}
	.st2{fill:#343F52;}
	.st3{fill:#415E6F;}
	.st4{fill:#56788B;}
	.st5{fill:#90ABBD;}
	.st6{display:none;fill:#90ABBD;}
	.st7{display:none;fill:none;stroke:#3A4455;stroke-width:5;stroke-miterlimit:10;}
	.st8{fill:#F4C1C6;}
	.st9{fill:none;stroke:#3A4455;stroke-width:7.4714;stroke-miterlimit:10;}
	.st10{fill:#EDF6F7;}
	.st11{fill:none;stroke:#343F52;stroke-width:20.3644;stroke-miterlimit:10;}
	.st12{fill:#FCD49B;}
	.st13{fill:none;stroke:#3A4455;stroke-width:8.3406;stroke-miterlimit:10;}
	.st14{fill:#3A4455;}
	.st15{fill:none;stroke:#3A4455;stroke-width:5.2032;stroke-miterlimit:10;}
	.st16{fill:#FCD49B;stroke:#3A4455;stroke-width:2.7802;stroke-miterlimit:10;}
	.st17{display:none;}
	.st18{display:inline;}
	.st19{display:inline;fill:none;stroke:#A6D8C8;stroke-width:25.6827;stroke-miterlimit:10;}
	.st20{fill:none;stroke:#3A4455;stroke-width:10;stroke-miterlimit:10;}
	.st21{fill:none;stroke:#3A4455;stroke-width:7.6747;stroke-miterlimit:10;}
	.st22{display:inline;fill:#3A4455;}
	.st23{fill:#76CCF6;}
	.st24{fill:none;stroke:#3A4455;stroke-width:11.4962;stroke-miterlimit:10;}
	.st25{fill:#A6D8C8;}
	.st26{fill:none;stroke:#343F52;stroke-width:15.5332;stroke-miterlimit:10;}
	.st27{fill:none;stroke:#A6D8C8;stroke-width:16.5278;stroke-miterlimit:10;}
	.st28{fill:#FFFFFF;stroke:#343F52;stroke-width:15.5332;stroke-miterlimit:10;}
</style>
<g id="Layer_1">
</g>
<g id="Layer_2">
</g>
<g id="Layer_3">
	<g class="st17">
		<g class="st18">
			<path class="st14" d="M81.24,158.5L81.24,158.5c0-2.63,2.15-4.77,4.77-4.77h80.5c2.63,0,4.77,2.15,4.77,4.77v0
				c0,2.63-2.15,4.77-4.77,4.77h-80.5C83.39,163.27,81.24,161.13,81.24,158.5z"/>
			<path class="st14" d="M81.32,363.05L81.32,363.05c0-2.63,2.15-4.77,4.77-4.77h80.5c2.63,0,4.77,2.15,4.77,4.77v0
				c0,2.63-2.15,4.77-4.77,4.77h-80.5C83.46,367.82,81.32,365.67,81.32,363.05z"/>
			<path class="st14" d="M37.9,330.07v-0.65c0-2.45,2-4.45,4.45-4.45h48.12c2.45,0,4.45,2,4.45,4.45v0.65c0,2.45-2,4.45-4.45,4.45
				H42.35C39.91,334.52,37.9,332.52,37.9,330.07z"/>
			<path class="st14" d="M18.98,276.78v-0.65c0-2.45,2-4.45,4.45-4.45h48.12c2.45,0,4.45,2,4.45,4.45v0.65c0,2.45-2,4.45-4.45,4.45
				H23.43C20.99,281.23,18.98,279.23,18.98,276.78z"/>
			<path class="st14" d="M18.98,245.04v-0.65c0-2.45,2-4.45,4.45-4.45h48.12c2.45,0,4.45,2,4.45,4.45v0.65c0,2.45-2,4.45-4.45,4.45
				H23.43C20.99,249.49,18.98,247.48,18.98,245.04z"/>
			<path class="st14" d="M38.08,191.75v-0.65c0-2.45,2-4.45,4.45-4.45h48.12c2.45,0,4.45,2,4.45,4.45v0.65c0,2.45-2,4.45-4.45,4.45
				H42.53C40.08,196.2,38.08,194.19,38.08,191.75z"/>
			<path class="st14" d="M65.18,222.88v-0.73c0-2.42,1.98-4.41,4.41-4.41h18.67c2.42,0,4.41,1.98,4.41,4.41v0.73
				c0,2.42-1.98,4.41-4.41,4.41H69.59C67.16,227.29,65.18,225.31,65.18,222.88z"/>
		</g>
		<ellipse class="st19" cx="212.49" cy="260.51" rx="98.5" ry="97.11"/>
		<g class="st18">
			<path class="st20" d="M132.09,182.46c2.93-2.96,44.22-43.28,102.64-31.23c36.34,7.49,66.95,32.7,80.37,65.8
				c21.95,54.15-4.67,122.52-58.23,146.58c-36.3,16.31-79.35,9.73-108.57-11.1c-24.67-17.58-35.88-42.75-37.71-47.01
				c-2.21-5.12-6.58-16.33-8.36-31.17c-3.82-31.98,7.18-57.89,13.66-70.39"/>
			<path class="st14" d="M122.68,198.05c0.76,1.8-0.04,3.7-0.38,4.49c-0.16,0.38-0.22,0.42-2.11,3.96c-0.05,0.1-0.16,0.3-0.21,0.4
				c-2.89-1.67-5.77-3.34-8.66-5.02c0.04-0.08,0.1-0.2,0.18-0.35c0.59-1.15,1.49-2.93,2.44-4.01c0.52-0.6,1.94-2.22,4.08-2.3
				C119.91,195.15,121.93,196.29,122.68,198.05z"/>
			<path class="st14" d="M128.57,190.68c1.95,0.18,3.52-1.17,4.16-1.73c0.31-0.27,0.33-0.33,3.14-3.21
				c0.08-0.08,0.24-0.24,0.32-0.33c-2.47-2.24-4.94-4.48-7.41-6.73c-0.07,0.06-0.16,0.16-0.28,0.27c-0.92,0.91-2.34,2.31-3.08,3.54
				c-0.41,0.68-1.52,2.52-0.95,4.59C124.96,188.92,126.67,190.5,128.57,190.68z"/>
		</g>
		<g class="st18">
			<path class="st21" d="M297.43,274.3c-0.53,3.14-8.63,46.52-50.77,64.73c-26.21,11.33-56.67,9.06-79.81-5.72
				c-35.38-22.59-54.48-74.88-28.4-117.25c24.72-40.15,77.5-52.74,117.9-28.13c9.77,5.95,18.06,14.66,19.1,15.8
				c17.14,18.89,21.37,40.31,22.64,50.01"/>
			<path class="st14" d="M296.43,260.42c-1.28-0.79-1.62-2.33-1.76-2.97c-0.07-0.31-0.05-0.36-0.43-3.41
				c-0.01-0.09-0.03-0.26-0.04-0.35c2.56-0.23,5.12-0.45,7.68-0.68c0.01,0.07,0.03,0.17,0.04,0.3c0.14,0.98,0.36,2.49,0.24,3.58
				c-0.06,0.6-0.24,2.24-1.55,3.24C299.46,261.01,297.68,261.19,296.43,260.42z"/>
			<path class="st14" d="M295.99,267.61c-1.31,0.74-1.7,2.28-1.86,2.91c-0.08,0.31-0.06,0.35-0.55,3.39
				c-0.01,0.09-0.04,0.26-0.06,0.34c2.55,0.31,5.1,0.63,7.65,0.94c0.01-0.07,0.03-0.17,0.05-0.3c0.18-0.98,0.44-2.47,0.37-3.57
				c-0.04-0.6-0.16-2.25-1.44-3.29C299.04,267.13,297.27,266.89,295.99,267.61z"/>
		</g>
		<path class="st22" d="M232.3,256.77h-15.72v-33.82c0-2.49-2.04-4.53-4.53-4.53s-4.53,2.04-4.53,4.53v38.35
			c0,2.49,2.04,4.53,4.53,4.53c0.03,0,0.07-0.01,0.1-0.01c0.03,0,0.07,0.01,0.1,0.01h20.06c2.17,0,3.94-1.77,3.94-3.94v-1.19
			C236.24,258.54,234.47,256.77,232.3,256.77z"/>
		<g class="st18">
			<path class="st14" d="M212.1,206.91L212.1,206.91c-2.49,0-4.53-2.04-4.53-4.53v-7.3c0-2.49,2.04-4.53,4.53-4.53h0
				c2.49,0,4.53,2.04,4.53,4.53v7.3C216.63,204.87,214.59,206.91,212.1,206.91z"/>
			<path class="st14" d="M250.54,222.87L250.54,222.87c-1.76-1.76-1.76-4.65,0-6.41l5.16-5.16c1.76-1.76,4.65-1.76,6.41,0v0
				c1.76,1.76,1.76,4.65,0,6.41l-5.16,5.16C255.18,224.64,252.3,224.64,250.54,222.87z"/>
			<path class="st14" d="M266.5,261.3L266.5,261.3c0-2.49,2.04-4.53,4.53-4.53h7.3c2.49,0,4.53,2.04,4.53,4.53l0,0
				c0,2.49-2.04,4.53-4.53,4.53h-7.3C268.54,265.84,266.5,263.8,266.5,261.3z"/>
			<path class="st14" d="M262.14,311.33L262.14,311.33c-1.76,1.76-4.65,1.76-6.41,0l-5.16-5.16c-1.76-1.76-1.76-4.65,0-6.41l0,0
				c1.76-1.76,4.65-1.76,6.41,0l5.16,5.16C263.9,306.68,263.9,309.56,262.14,311.33z"/>
			<path class="st14" d="M212.1,331.87L212.1,331.87c-2.49,0-4.53-2.04-4.53-4.53v-7.3c0-2.49,2.04-4.53,4.53-4.53h0
				c2.49,0,4.53,2.04,4.53,4.53v7.3C216.63,329.84,214.59,331.87,212.1,331.87z"/>
			<path class="st14" d="M162.21,311.08L162.21,311.08c-1.76-1.76-1.76-4.65,0-6.41l5.16-5.16c1.76-1.76,4.65-1.76,6.41,0l0,0
				c1.76,1.76,1.76,4.65,0,6.41l-5.16,5.16C166.86,312.85,163.97,312.85,162.21,311.08z"/>
			<path class="st14" d="M141.38,261.53L141.38,261.53c0-2.49,2.04-4.53,4.53-4.53h7.3c2.49,0,4.53,2.04,4.53,4.53l0,0
				c0,2.49-2.04,4.53-4.53,4.53h-7.3C143.42,266.07,141.38,264.03,141.38,261.53z"/>
			<path class="st14" d="M173.56,222.96L173.56,222.96c-1.76,1.76-4.65,1.76-6.41,0l-5.16-5.16c-1.76-1.76-1.76-4.65,0-6.41v0
				c1.76-1.76,4.65-1.76,6.41,0l5.16,5.16C175.32,218.32,175.32,221.2,173.56,222.96z"/>
		</g>
	</g>
	<g>
		<g>
			<path class="st14" d="M73.55,163.62L73.55,163.62c0-2.31,1.89-4.2,4.2-4.2h70.88c2.31,0,4.2,1.89,4.2,4.2l0,0
				c0,2.31-1.89,4.2-4.2,4.2H77.75C75.44,167.82,73.55,165.93,73.55,163.62z"/>
			<path class="st14" d="M73.61,343.7L73.61,343.7c0-2.31,1.89-4.2,4.2-4.2h70.88c2.31,0,4.2,1.89,4.2,4.2v0
				c0,2.31-1.89,4.2-4.2,4.2H77.82C75.5,347.91,73.61,346.02,73.61,343.7z"/>
			<path class="st14" d="M35.39,314.67v-0.57c0-2.15,1.76-3.92,3.92-3.92h42.36c2.15,0,3.92,1.76,3.92,3.92v0.57
				c0,2.15-1.76,3.92-3.92,3.92H39.31C37.16,318.59,35.39,316.82,35.39,314.67z"/>
			<path class="st14" d="M18.74,267.75v-0.57c0-2.15,1.76-3.92,3.92-3.92h42.36c2.15,0,3.92,1.76,3.92,3.92v0.57
				c0,2.15-1.76,3.92-3.92,3.92H22.65C20.5,271.67,18.74,269.91,18.74,267.75z"/>
			<path class="st14" d="M18.74,239.8v-0.57c0-2.15,1.76-3.92,3.92-3.92h42.36c2.15,0,3.92,1.76,3.92,3.92v0.57
				c0,2.15-1.76,3.92-3.92,3.92H22.65C20.5,243.72,18.74,241.96,18.74,239.8z"/>
			<path class="st14" d="M35.55,192.89v-0.57c0-2.15,1.76-3.92,3.92-3.92h42.36c2.15,0,3.92,1.76,3.92,3.92v0.57
				c0,2.15-1.76,3.92-3.92,3.92H39.47C37.31,196.8,35.55,195.04,35.55,192.89z"/>
			<path class="st14" d="M59.41,220.3v-0.64c0-2.13,1.75-3.88,3.88-3.88h16.43c2.13,0,3.88,1.75,3.88,3.88v0.64
				c0,2.13-1.75,3.88-3.88,3.88H63.29C61.15,224.18,59.41,222.44,59.41,220.3z"/>
		</g>
		<path class="st23" d="M154.57,165.45c52.12-2.02,106.55-2.94,163.11-2.43c52.05,0.47,102.25,2.1,150.48,4.66
			c2.74,1.07,5.47,2.15,8.21,3.22c-18.87,8.26-38.02,17.02-57.43,26.3c-50.32,24.07-97.06,49.18-140.28,74.52
			c-31.11-23.11-56.53-41.38-73.87-53.7c-32.35-23-59.4-41.53-55.99-49.37C149.68,166.63,152.35,165.82,154.57,165.45z"/>
		<g>
			<path class="st14" d="M300.98,193.52L300.98,193.52c-2.32,0-4.22-1.9-4.22-4.22v-6.8c0-2.32,1.9-4.22,4.22-4.22l0,0
				c2.32,0,4.22,1.9,4.22,4.22v6.8C305.2,191.62,303.3,193.52,300.98,193.52z"/>
			<path class="st14" d="M375.64,210.53L375.64,210.53c-1.64-1.64-1.64-4.33,0-5.97l4.81-4.81c1.64-1.64,4.33-1.64,5.97,0v0
				c1.64,1.64,1.64,4.33,0,5.97l-4.81,4.81C379.97,212.17,377.29,212.17,375.64,210.53z"/>
			<path class="st14" d="M428.96,253.66L428.96,253.66c0-2.32,1.9-4.22,4.22-4.22h6.8c2.32,0,4.22,1.9,4.22,4.22l0,0
				c0,2.32-1.9,4.22-4.22,4.22h-6.8C430.86,257.88,428.96,255.98,428.96,253.66z"/>
			<path class="st14" d="M379.8,302.31L379.8,302.31c-1.64,1.64-4.33,1.64-5.97,0l-4.81-4.81c-1.64-1.64-1.64-4.33,0-5.97l0,0
				c1.64-1.64,4.33-1.64,5.97,0l4.81,4.81C381.44,297.99,381.44,300.67,379.8,302.31z"/>
			<path class="st14" d="M296.76,329.95L296.76,329.95c-2.32,0-4.22-1.9-4.22-4.22v-6.8c0-2.32,1.9-4.22,4.22-4.22l0,0
				c2.32,0,4.22,1.9,4.22,4.22v6.8C300.98,328.05,299.08,329.95,296.76,329.95z"/>
			<path class="st14" d="M209.29,305.57L209.29,305.57c-1.64-1.64-1.64-4.33,0-5.97l4.81-4.81c1.64-1.64,4.33-1.64,5.97,0l0,0
				c1.64,1.64,1.64,4.33,0,5.97l-4.81,4.81C213.62,307.21,210.93,307.21,209.29,305.57z"/>
			<path class="st14" d="M153.37,253.36L153.37,253.36c0-2.32,1.9-4.22,4.22-4.22h6.8c2.32,0,4.22,1.9,4.22,4.22v0
				c0,2.32-1.9,4.22-4.22,4.22h-6.8C155.27,257.58,153.37,255.68,153.37,253.36z"/>
			<path class="st14" d="M228.99,213.42L228.99,213.42c-1.64,1.64-4.33,1.64-5.97,0l-4.81-4.81c-1.64-1.64-1.64-4.33,0-5.97l0,0
				c1.64-1.64,4.33-1.64,5.97,0l4.81,4.81C230.63,209.09,230.63,211.78,228.99,213.42z"/>
		</g>
		<path class="st24" d="M435.64,343.11H119.77c-9.86,0-17.93-8.07-17.93-17.93l36.23-140.71c1.17-4,3.34-9.07,7.73-13.32
			c8.26-8.01,19.76-8.62,25.09-8.77c19.28-0.54,130.2,0.06,282.37,2.4c0.8-0.04,17.68-0.63,24.97,11.53
			c2.34,3.91,2.95,7.88,3.04,10.72c-9.23,46.05-18.47,92.1-27.7,138.15C453.56,335.04,445.5,343.11,435.64,343.11z"/>
		<path class="st14" d="M371.9,223.69l-90.49,52.24c-2.4,1.38-5.49,0.56-6.88-1.84l0,0c-1.38-2.4-0.56-5.49,1.84-6.88l90.49-52.24
			c2.4-1.38,5.49-0.56,6.88,1.84l0,0C375.13,219.21,374.3,222.31,371.9,223.69z"/>
		<path class="st14" d="M274.88,275.25l-54.18-42.38c-1.8-1.41-2.13-4.04-0.71-5.85l1.07-1.37c1.41-1.8,4.04-2.13,5.85-0.71
			l54.18,42.38c1.8,1.41,2.13,4.04,0.71,5.85l-1.07,1.37C279.32,276.34,276.69,276.66,274.88,275.25z"/>
	</g>
</g>
<g id="Layer_4">
</g>
</svg>
