<?xml version="1.0" encoding="utf-8"?>
<!-- Generator: Adobe Illustrator 25.2.0, SVG Export Plug-In . SVG Version: 6.00 Build 0)  -->
<svg version="1.1" id="Layer_1" xmlns="http://www.w3.org/2000/svg" xmlns:xlink="http://www.w3.org/1999/xlink" x="0px" y="0px"
	 viewBox="0 0 500 500" style="enable-background:new 0 0 500 500;" xml:space="preserve">
<style type="text/css">
	.st0{fill:#343F52;}
	.st1{fill:none;stroke:#343F52;stroke-width:12.8493;stroke-miterlimit:10;}
	.st2{fill:#A6D8C8;}
	.st3{fill:none;stroke:#A6D8C8;stroke-width:10.7991;stroke-miterlimit:10;}
	.st4{fill:none;stroke:#343F52;stroke-width:6.1386;stroke-miterlimit:10;}
	.st5{fill:none;stroke:#343F52;stroke-width:5.5462;stroke-miterlimit:10;}
	.st6{fill:none;stroke:#343F52;stroke-width:5.5301;stroke-miterlimit:10;}
	.st7{fill:none;stroke:#343F52;stroke-width:12.0238;stroke-miterlimit:10;}
	.st8{fill:none;stroke:#343F52;stroke-width:12.0735;stroke-miterlimit:10;}
	.st9{fill:none;stroke:#343F52;stroke-width:10.239;stroke-miterlimit:10;}
	.st10{fill:none;stroke:#343F52;stroke-width:11.5928;stroke-miterlimit:10;}
	.st11{fill:#EEA1A6;stroke:#343F52;stroke-width:5.3972;stroke-miterlimit:10;}
	.st12{fill:none;stroke:#343F52;stroke-width:5.1938;stroke-miterlimit:10;}
	.st13{fill:none;stroke:#343F52;stroke-width:5.8966;stroke-miterlimit:10;}
	.st14{fill:#EEA1A6;}
	.st15{fill:#D9F0F4;}
	.st16{fill:none;stroke:#343F52;stroke-width:17.314;stroke-miterlimit:10;}
	.st17{fill:#415E6F;}
	.st18{fill:#56788B;}
	.st19{fill:#90ABBD;}
	.st20{fill:#FF6B81;}
	.st21{fill:#F9B767;}
	.st22{fill:#FCD49B;}
	.st23{fill:#4F5B6B;}
	.st24{fill:#FFFFFF;}
	.st25{fill:#8CAEEC;}
	.st26{fill:none;stroke:#343F52;stroke-width:8.6457;stroke-miterlimit:10;}
	.st27{fill:#FFFFFF;stroke:#8CAEEC;stroke-width:8.6893;stroke-miterlimit:10;}
	.st28{fill:#A2D5F2;}
	.st29{fill:none;stroke:#8CAEEC;stroke-width:8.6893;stroke-miterlimit:10;}
	.st30{fill:none;stroke:#343F52;stroke-width:8.6893;stroke-miterlimit:10;}
</style>
<g>
	<g>
		<path class="st0" d="M375.9,412.4l-85.47-85.47c-0.63-0.46-1.48-1.19-2.24-2.3c-1.15-1.69-1.47-3.35-1.58-4.25
			c-0.14-0.63-2.75-13.25,6.55-22.08c8.03-7.62,18.37-6.19,19.6-5.99c0.99,0.09,2.76,0.38,4.65,1.47c1.65,0.96,2.7,2.13,3.28,2.88
			l85.47,85.47c0.47,0.58,0.93,1.18,1.4,1.82c1.07,1.46,2,2.89,2.79,4.25c4.21,7.84,3.12,17.46-2.67,24.02
			c-6.11,6.91-16.21,9.02-24.75,5.1c-1.42-0.81-2.93-1.77-4.49-2.91C377.53,413.73,376.68,413.06,375.9,412.4z"/>
		<circle class="st1" cx="200.4" cy="209.75" r="131.23"/>
	</g>
	<g>
		<path class="st2" d="M312.1,202.33c-3.48-51.44-45.56-95.2-100.17-101.04l-1.49,217.3C271.45,312.55,315.96,259.37,312.1,202.33z
			 M298.6,191.9c-0.03,1.45-0.47,2.5-0.58,2.75c-0.49,1.11-1.15,1.74-1.98,2.55c-1.21,1.19-2.28,2.51-3.54,3.65
			c-3.76,3.4-22.9,21.51-28.03,27.29c-0.43,0.48-1.75,1.77-4.4,4.36c-1.22,1.18-1.84,1.77-2.9,2.3c-0.62,0.3-2.41,1.15-4.53,0.79
			c-1.22-0.21-2.2-0.92-4.12-2.33c-1.31-0.97-2.19-1.74-4.58-3.89c-2.22-1.99-3.33-2.99-3.62-3.26
			c-4.85-4.47-10.34-10.24-11.37-11.32c-0.31-0.77-1.24-3.34-0.21-6.22c1.04-2.93,3.79-5.32,7.05-5.61c2.22-0.2,3.96,0.65,4.71,1.08
			c4.15,4.41,6.91,7.34,8.46,8.97c2.71,2.87,4.1,4.31,5.38,4.47c2.84,0.35,4.45-2.73,12.44-11.48c3.29-3.6,2.61-2.64,7.19-7.63
			c3.86-4.2,6.99-7.77,9.18-10.31c0,0,2.13-2.4,5.13-3.68c0.63-0.27,1.19-0.42,1.75-0.48c1.2-0.14,2.14,0.13,2.61,0.27
			c2.35,0.7,4.86,2.77,5.66,5.53C298.61,190.74,298.6,191.69,298.6,191.9z"/>
		<circle class="st3" cx="200.4" cy="209.75" r="111.7"/>
		<g>
			<path class="st3" d="M197.46,98.09c-6.03,4.7-53.99,43.42-54.52,110.19c-0.55,68.83,49.76,108.8,55.43,113.15"/>
			<path class="st3" d="M196.87,101.56c-0.58,73.26-1.15,146.51-1.73,219.77"/>
			<path class="st3" d="M90.32,209.17c35.61-0.07,71.21-0.15,106.82-0.22"/>
			<path class="st3" d="M121.31,132.46c6.23,5.36,17.24,13.48,33,18.73c16.46,5.48,30.72,5.37,39.03,4.68"/>
			<path class="st3" d="M121.31,285.66c6.23-5.36,17.24-13.48,33-18.73c16.46-5.48,30.72-5.37,39.03-4.68"/>
		</g>
	</g>
</g>
</svg>
