<?xml version="1.0" encoding="utf-8"?>
<!-- Generator: Adobe Illustrator 25.2.0, SVG Export Plug-In . SVG Version: 6.00 Build 0)  -->
<svg version="1.1" xmlns="http://www.w3.org/2000/svg" xmlns:xlink="http://www.w3.org/1999/xlink" x="0px" y="0px"
	 viewBox="0 0 500 500" style="enable-background:new 0 0 500 500;" xml:space="preserve">
<style type="text/css">
	.st0{fill:#D9F0F4;}
	.st1{fill:none;stroke:#343F52;stroke-width:14.9429;stroke-miterlimit:10;}
	.st2{fill:#343F52;}
	.st3{fill:#415E6F;}
	.st4{fill:#56788B;}
	.st5{fill:#90ABBD;}
	.st6{display:none;fill:#90ABBD;}
	.st7{display:none;fill:none;stroke:#3A4455;stroke-width:5;stroke-miterlimit:10;}
	.st8{fill:#F4C1C6;}
	.st9{fill:none;stroke:#3A4455;stroke-width:7.4714;stroke-miterlimit:10;}
	.st10{fill:#EDF6F7;}
	.st11{fill:none;stroke:#343F52;stroke-width:20.3644;stroke-miterlimit:10;}
	.st12{fill:#FCD49B;}
	.st13{fill:none;stroke:#3A4455;stroke-width:8.3406;stroke-miterlimit:10;}
	.st14{fill:#3A4455;}
	.st15{fill:none;stroke:#3A4455;stroke-width:5.2032;stroke-miterlimit:10;}
	.st16{fill:#FCD49B;stroke:#3A4455;stroke-width:2.7802;stroke-miterlimit:10;}
	.st17{display:none;}
	.st18{display:inline;}
	.st19{display:inline;fill:none;stroke:#A6D8C8;stroke-width:25.6827;stroke-miterlimit:10;}
	.st20{fill:none;stroke:#3A4455;stroke-width:10;stroke-miterlimit:10;}
	.st21{fill:none;stroke:#3A4455;stroke-width:7.6747;stroke-miterlimit:10;}
	.st22{display:inline;fill:#3A4455;}
	.st23{fill:#76CCF6;}
	.st24{fill:none;stroke:#3A4455;stroke-width:11.4962;stroke-miterlimit:10;}
	.st25{fill:#A6D8C8;}
	.st26{fill:none;stroke:#343F52;stroke-width:15.5332;stroke-miterlimit:10;}
	.st27{fill:none;stroke:#A6D8C8;stroke-width:16.5278;stroke-miterlimit:10;}
	.st28{fill:#FFFFFF;stroke:#343F52;stroke-width:15.5332;stroke-miterlimit:10;}
</style>
<g id="Layer_1">
</g>
<g id="Layer_2">
</g>
<g id="Layer_3">
</g>
<g id="Layer_4">
	<g>
		<g>
			<path class="st25" d="M406.87,176.7H63.63c-10.15,0-18.45-8.3-18.45-18.45v-28.68c0-10.15,8.3-18.45,18.45-18.45h343.24
				c10.15,0,18.45,8.3,18.45,18.45v28.68C425.32,168.4,417.02,176.7,406.87,176.7z"/>
			<path class="st26" d="M391.43,372.37H79.07c-18.64,0-33.89-15.25-33.89-33.89V141.81c0-18.64,15.25-33.89,33.89-33.89h312.36
				c18.64,0,33.89,15.25,33.89,33.89v196.66C425.32,357.11,410.07,372.37,391.43,372.37z"/>
			<path class="st26" d="M45.18,182.56c125.11,0,250.23,0,375.34,0"/>
			<path class="st26" d="M48.2,231.61c123.22-0.07,246.44-0.15,369.65-0.22"/>
			<path class="st25" d="M260.03,289.9h-33.91c-4.02,0-7.3-3.29-7.3-7.3v-2.1c0-4.02,3.29-7.3,7.3-7.3h33.91
				c4.02,0,7.3,3.29,7.3,7.3v2.1C267.33,286.62,264.04,289.9,260.03,289.9z"/>
			<path class="st25" d="M326.14,289.9h-33.91c-4.02,0-7.3-3.29-7.3-7.3v-2.1c0-4.02,3.29-7.3,7.3-7.3h33.91
				c4.02,0,7.3,3.29,7.3,7.3v2.1C333.44,286.62,330.15,289.9,326.14,289.9z"/>
			<path class="st27" d="M192.91,331.05H94.19c-0.27,0-0.49-0.22-0.49-0.49v-48.52c0-0.27,0.22-0.49,0.49-0.49h98.72
				c0.27,0,0.49,0.22,0.49,0.49v48.52C193.4,330.83,193.18,331.05,192.91,331.05z"/>
		</g>
		<g>
			<path class="st28" d="M326.69,289.55c11.82-0.52,26.06-2.11,41.84-5.92c12.27-2.97,23.02-6.69,32.09-10.43
				c8.29,3.91,18.53,7.94,30.57,11.02c16.87,4.32,31.83,5.39,43.36,5.33c0,21.8,0,43.6,0,65.4c-1.16,8.76-5.95,36.26-29.5,58.82
				c-16.86,16.15-35.29,22.08-44.43,24.35c-8.74-1.88-28.18-7.31-45.67-24.17c-23.39-22.55-27.39-50.21-28.26-58.29
				C326.69,333.62,326.69,311.59,326.69,289.55z"/>
			<g>
				<path class="st25" d="M388.51,384.8l-27.96-27.96c-2.51-2.51-2.51-6.62,0-9.13l1.5-1.5c2.51-2.51,6.62-2.51,9.13,0l27.96,27.96
					c2.51,2.51,2.51,6.62,0,9.13l-1.5,1.5C395.13,387.31,391.02,387.31,388.51,384.8z"/>
				<path class="st25" d="M387.58,375.05l52.51-52.51c2.3-2.3,6.06-2.3,8.36,0l1.63,1.63c2.3,2.3,2.3,6.06,0,8.36l-52.51,52.51
					c-2.3,2.3-6.06,2.3-8.36,0l-1.63-1.63C385.28,381.11,385.28,377.35,387.58,375.05z"/>
			</g>
		</g>
	</g>
</g>
</svg>
