<?xml version="1.0" encoding="utf-8"?>
<!-- Generator: Adobe Illustrator 25.2.0, SVG Export Plug-In . SVG Version: 6.00 Build 0)  -->
<svg version="1.1" id="Layer_1" xmlns="http://www.w3.org/2000/svg" xmlns:xlink="http://www.w3.org/1999/xlink" x="0px" y="0px"
	 viewBox="0 0 500 500" style="enable-background:new 0 0 500 500;" xml:space="preserve">
<style type="text/css">
	.st0{fill:#343F52;}
	.st1{fill:none;stroke:#343F52;stroke-width:12.8493;stroke-miterlimit:10;}
	.st2{fill:#A6D8C8;}
	.st3{fill:none;stroke:#A6D8C8;stroke-width:10.7991;stroke-miterlimit:10;}
	.st4{fill:none;stroke:#343F52;stroke-width:6.1386;stroke-miterlimit:10;}
	.st5{fill:none;stroke:#343F52;stroke-width:5.5462;stroke-miterlimit:10;}
	.st6{fill:none;stroke:#343F52;stroke-width:5.5301;stroke-miterlimit:10;}
	.st7{fill:none;stroke:#343F52;stroke-width:12.0238;stroke-miterlimit:10;}
	.st8{fill:none;stroke:#343F52;stroke-width:12.0735;stroke-miterlimit:10;}
	.st9{fill:none;stroke:#343F52;stroke-width:10.239;stroke-miterlimit:10;}
	.st10{fill:none;stroke:#343F52;stroke-width:11.5928;stroke-miterlimit:10;}
	.st11{fill:#EEA1A6;stroke:#343F52;stroke-width:5.3972;stroke-miterlimit:10;}
	.st12{fill:none;stroke:#343F52;stroke-width:5.1938;stroke-miterlimit:10;}
	.st13{fill:none;stroke:#343F52;stroke-width:5.8966;stroke-miterlimit:10;}
	.st14{fill:#EEA1A6;}
	.st15{fill:#D9F0F4;}
	.st16{fill:none;stroke:#343F52;stroke-width:17.314;stroke-miterlimit:10;}
	.st17{fill:#415E6F;}
	.st18{fill:#56788B;}
	.st19{fill:#90ABBD;}
	.st20{fill:#FF6B81;}
	.st21{fill:#F9B767;}
	.st22{fill:#FCD49B;}
	.st23{fill:#4F5B6B;}
	.st24{fill:#FFFFFF;}
	.st25{fill:#8CAEEC;}
	.st26{fill:none;stroke:#343F52;stroke-width:8.6457;stroke-miterlimit:10;}
	.st27{fill:#FFFFFF;stroke:#8CAEEC;stroke-width:8.6893;stroke-miterlimit:10;}
	.st28{fill:#A2D5F2;}
	.st29{fill:none;stroke:#8CAEEC;stroke-width:8.6893;stroke-miterlimit:10;}
	.st30{fill:none;stroke:#343F52;stroke-width:8.6893;stroke-miterlimit:10;}
</style>
<g>
	<g>
		<path class="st15" d="M334.33,421.06h-158.5c-7.77,0-14.12-6.35-14.12-14.12V94.3c0-7.77,6.35-14.12,14.12-14.12h158.5
			c7.77,0,14.12,6.35,14.12,14.12v312.65C348.45,414.71,342.09,421.06,334.33,421.06z"/>
		<path class="st16" d="M325.6,427.67H184.54c-16.04,0-29.04-13-29.04-29.04V101.37c0-16.04,13-29.04,29.04-29.04H325.6
			c16.04,0,29.04,13,29.04,29.04v297.26C354.64,414.67,341.64,427.67,325.6,427.67z"/>
		<g>
			<path class="st0" d="M301.94,103.61c-30.7,0-61.4,0-92.1,0c-0.77-0.37-1.85-1.02-2.88-2.16c-1.66-1.83-2.28-3.98-4.66-13.54
				c-0.5-1.99-0.92-3.72-2.33-5.2c-1.16-1.21-2.49-1.74-3.42-1.99c39.48,0.06,78.96,0.11,118.43,0.17
				c-1.07,0.15-2.57,0.56-3.77,1.82c-1.27,1.34-1.51,2.91-1.98,5.2c-1.15,5.52-2.14,10.07-4.76,13.32
				C303.52,102.41,302.56,103.17,301.94,103.61z"/>
			<path class="st17" d="M282.35,87.72h-52.9c-2.79,0-5.08-2.29-5.08-5.08v-1.15c0-2.79,2.29-5.08,5.08-5.08h52.91
				c2.79,0,5.08,2.29,5.08,5.08v1.15C287.43,85.44,285.15,87.72,282.35,87.72z"/>
		</g>
		<path class="st18" d="M297.28,392.58h-59.57c-2.95,0-5.36-2.41-5.36-5.36v-0.59c0-2.95,2.41-5.36,5.36-5.36h59.57
			c2.95,0,5.36,2.41,5.36,5.36v0.59C302.64,390.17,300.23,392.58,297.28,392.58z"/>
		<path class="st19" d="M244.03,359.08h-40.18c-2.38,0-4.33-1.95-4.33-4.33v-1.95c0-2.38,1.95-4.33,4.33-4.33h40.18
			c2.38,0,4.33,1.95,4.33,4.33v1.95C248.36,357.13,246.41,359.08,244.03,359.08z"/>
		<path class="st19" d="M229.58,333.87h-26.33c-2.06,0-3.74-1.68-3.74-3.74v-3.95c0-2.06,1.68-3.74,3.74-3.74h26.33
			c2.06,0,3.74,1.68,3.74,3.74v3.95C233.32,332.19,231.64,333.87,229.58,333.87z"/>
	</g>
	<g>
		<circle class="st20" cx="280.06" cy="275.23" r="18.25"/>
		<path class="st20" d="M357.15,210.01c0.5,6.79-5.21,11.45-7.42,13.26c-2.21,1.81-4.59,3.75-7.97,3.93
			c-7.08,0.37-14.54-7.2-13.9-13.9c0.34-3.6,2.93-6.02,6.26-9.14c2.72-2.55,5.57-5.22,9.97-5.51c4.57-0.31,7.84,2.14,8.32,2.5
			C352.68,201.37,356.75,204.61,357.15,210.01z"/>
		<path class="st21" d="M304.48,207.04c-6.56,2.68-11.67,7.26-12.37,7.89c-3.89,3.54-10.18,10.62-15.57,15.79
			c-0.51,0.49-1.56,1.48-3.17,2.44c-2.47,1.46-4.5,1.79-7.39,2.4c-9.65,2.03-12.1,3.63-13.43,4.86c-1.32,1.22-1.88,2.37-2.17,3.2
			c-0.6,1.75-0.39,3.34-0.28,4.1c0,0,0.35,2.46,1.78,4.8c1.98,3.24,22.62,23.99,51.65,51.74c0.77,0.73,3.01,2.66,6.14,2.96
			c3.94,0.37,6.53-2.11,7.4-2.94c0.1-0.1,0.21-0.2,0.33-0.34c2.43-2.72,2.47-5.3,4.2-10.83c1.27-4.07,2.14-5.37,2.35-6.91
			c0.03-0.2,0.12-0.96,0.6-1.77c0.41-0.69,0.9-1.08,1.09-1.24c0.19-0.16,1.73-1.71,4.81-4.81c1.41-1.42,1.54-1.63,3.01-3.08
			c0.39-0.39,1.16-1.14,1.92-1.88c0.12-0.11,0.73-0.72,1.35-1.32c2.73-2.64,2.99-2.82,4.23-4.08c1.12-1.14,1.86-1.98,2.08-2.23
			c0.94-1.06,1.61-1.92,1.88-2.25c0.48-0.61,1.38-1.79,2.48-3.46c1.51-2.29,2.82-4.63,3.43-5.89c2.72-5.59,2.73-12.67,2.74-13.73
			c0.04-19.4-13.31-29.64-13.31-29.64C324.94,199.07,306.03,206.41,304.48,207.04z"/>
		<path class="st22" d="M302.14,204.8c-5.79,2.77-9.68,5.86-12.12,8.12c-3.86,3.56-10.17,10.64-15.53,15.83
			c-0.51,0.49-1.55,1.49-3.13,2.48c-2.42,1.51-4.36,1.92-7.14,2.63c-9.27,2.38-11.67,4.02-13,5.26c-1.31,1.22-1.9,2.36-2.21,3.16
			c-0.65,1.7-0.52,3.21-0.45,3.94c0,0,0.22,2.34,1.48,4.51c1.74,3.02,20.43,21.95,46.79,47.22c0.7,0.66,2.74,2.41,5.71,2.55
			c3.73,0.18,6.31-2.32,7.18-3.16c0.79-0.77,2.14-2.28,4.81-10.9c1.9-6.13,1.67-6.83,3.04-8.94c0.75-1.15,1.01-1.25,5.81-5.99
			c4.42-4.37,3.71-3.8,6.21-6.21c3.48-3.34,4.44-4.03,6.41-6.31c1.7-1.96,2.83-3.58,3.41-4.41c1.88-2.71,4.55-7.11,6.81-13.33
			c3.79-11.79,0.22-24.72-9.02-32.76C327.56,200.11,313.52,198.61,302.14,204.8z"/>
		<g>
			<path class="st20" d="M258.06,204.9c-0.58-0.24-1.53-0.72-2.15-1.7c-0.58-0.91-0.67-1.9-0.51-3.79c0.12-1.51,0.4-3.63,1.09-6.16
				c0.7-2.11,1.87-4.86,3.83-7.74c1.41-2.06,2.88-3.68,4.17-4.92c4.77-3.72,9.15-5.18,11.87-5.82c2.41-0.57,6.83-1.61,8.87,0.56
				c0.17,0.18,0.93,1.03,0.98,2.25c0.06,1.54-1.06,2.91-2.24,3.48c-0.55,0.27-0.72,0.17-2.45,0.4c0,0-1.77,0.24-3.61,0.66
				c-0.67,0.16-2.3,0.58-4.16,1.39c-1.35,0.59-3.41,1.69-5.39,3.68c-1.57,1.58-2.55,3.19-3.15,4.37c-0.57,0.98-1.4,2.6-1.86,4.73
				c-0.81,3.69,0.1,5.92-1.37,7.46C261.41,204.32,260.35,205,258.06,204.9z"/>
			<path class="st20" d="M274.68,204.63c-0.49-0.07-2-0.34-2.94-1.61c-0.34-0.47-0.48-0.9-0.58-1.21c-0.55-1.75,0.01-3.37,0.38-4.41
				c0.1-0.29,0.58-1.65,1.73-3.16c0.75-0.99,1.53-1.7,2.12-2.18c0.89-0.76,2.46-1.87,4.66-2.27c1.04-0.19,2.6-0.48,4.04,0.34
				c0.76,0.44,1.26,1.06,1.37,1.2c0.26,0.33,0.75,0.97,0.88,1.88c0.17,1.18-0.27,2.74-1.28,3.23c-0.45,0.22-0.62,0.03-1.97,0.36
				c-0.35,0.08-0.7,0.17-1.15,0.34c-0.51,0.19-1.19,0.46-1.9,1.05c-0.22,0.19-0.61,0.52-0.96,1.07c-0.36,0.57-0.5,1.09-0.61,1.51
				c-0.29,1.12-0.07,1.41-0.42,2.11c-0.29,0.59-0.71,0.93-0.86,1.05C276.2,204.72,275.03,204.66,274.68,204.63z"/>
		</g>
		<g>
			<path class="st20" d="M351.74,298.6c0.26,0.57,0.8,1.49,1.81,2.06c0.94,0.53,1.93,0.57,3.82,0.32c1.51-0.2,3.61-0.59,6.1-1.4
				c2.07-0.81,4.76-2.11,7.53-4.22c1.99-1.51,3.53-3.06,4.7-4.42c3.48-4.95,4.71-9.4,5.21-12.15c0.44-2.43,1.26-6.91-1.02-8.83
				c-0.19-0.16-1.08-0.88-2.3-0.86c-1.54,0.02-2.85,1.21-3.36,2.42c-0.24,0.57-0.13,0.73-0.27,2.47c0,0-0.15,1.78-0.48,3.63
				c-0.12,0.68-0.46,2.33-1.17,4.23c-0.52,1.38-1.51,3.49-3.4,5.57c-1.5,1.65-3.06,2.71-4.2,3.37c-0.95,0.62-2.52,1.53-4.63,2.1
				c-3.64,1-5.92,0.2-7.38,1.75C352.15,295.22,351.53,296.32,351.74,298.6z"/>
			<path class="st20" d="M351.17,281.98c0.09,0.49,0.44,1.98,1.76,2.85c0.49,0.32,0.92,0.43,1.23,0.51c1.78,0.46,3.36-0.19,4.39-0.6
				c0.28-0.11,1.62-0.67,3.06-1.89c0.95-0.8,1.62-1.62,2.07-2.23c0.71-0.92,1.74-2.56,2.03-4.77c0.14-1.05,0.35-2.62-0.54-4.02
				c-0.48-0.74-1.12-1.2-1.27-1.31c-0.35-0.24-1-0.7-1.92-0.79c-1.19-0.11-2.72,0.41-3.16,1.44c-0.2,0.46,0,0.63-0.26,1.99
				c-0.07,0.36-0.13,0.71-0.28,1.16c-0.17,0.52-0.39,1.22-0.95,1.95c-0.17,0.23-0.49,0.63-1.02,1.01c-0.55,0.39-1.06,0.56-1.48,0.69
				c-1.11,0.35-1.4,0.15-2.09,0.53c-0.57,0.32-0.89,0.76-1.01,0.92C350.99,280.47,351.12,281.64,351.17,281.98z"/>
		</g>
	</g>
	<g>
		<path class="st23" d="M234.15,169.72h-37.62c-3.66,0-6.65-2.99-6.65-6.65v-27.62c0-3.66,2.99-6.65,6.65-6.65h37.62
			c3.66,0,6.65,2.99,6.65,6.65v27.62C240.81,166.73,237.81,169.72,234.15,169.72z"/>
		<path class="st0" d="M227.69,169.72c-2.91,0-3.9,0.06-14.11,0.01c-0.52,0-0.67,0-5.28-0.01c-1.84,0-3.43-0.01-5.66-0.01
			c-0.57,0-1.54,0-2.09,0c-0.29,0.28-0.71,0.68-1.24,1.14c-1.34,1.19-2.41,1.99-2.84,2.32c-2.78,2.11-5.66,4.1-8.4,6.26
			c-0.32,0.25-1.1,0.87-2.15,0.87c-0.09,0-0.88-0.01-1.48-0.42c-0.9-0.62-0.98-1.88-1.02-5.1c-0.03-2.33,0-3.38,0-6.43
			c0-1.22,0-2.45,0-3.67c0-0.55,0-1.09,0-1.64c0,0,0-1.51,0-1.51c0-0.01,0-2.33,0-2.34c0-0.02,0-23.49,0-23.77
			c0-0.45,0.05-2.8,1.95-4.7c1.21-1.21,2.87-1.95,4.7-1.95h37.62c3.66,0,6.65,2.99,6.65,6.65v27.62
			C234.35,166.73,231.35,169.72,227.69,169.72z"/>
		<path class="st24" d="M225.77,146.23h-27.14c-1.37,0-2.48-1.12-2.48-2.48v-0.35c0-1.37,1.12-2.48,2.48-2.48h27.14
			c1.37,0,2.48,1.12,2.48,2.48v0.35C228.25,145.11,227.14,146.23,225.77,146.23z"/>
		<path class="st24" d="M222.51,157.64h-23.85c-1.29,0-2.34-1.05-2.34-2.34v-0.63c0-1.29,1.05-2.34,2.34-2.34h23.85
			c1.29,0,2.34,1.05,2.34,2.34v0.63C224.86,156.58,223.8,157.64,222.51,157.64z"/>
	</g>
</g>
</svg>
