<?xml version="1.0" encoding="utf-8"?>
<!-- Generator: Adobe Illustrator 25.2.0, SVG Export Plug-In . SVG Version: 6.00 Build 0)  -->
<svg version="1.1" id="Layer_1" xmlns="http://www.w3.org/2000/svg" xmlns:xlink="http://www.w3.org/1999/xlink" x="0px" y="0px"
	 viewBox="0 0 500 500" style="enable-background:new 0 0 500 500;" xml:space="preserve">
<style type="text/css">
	.st0{fill:#343F52;}
	.st1{fill:none;stroke:#343F52;stroke-width:12.8493;stroke-miterlimit:10;}
	.st2{fill:#A6D8C8;}
	.st3{fill:none;stroke:#A6D8C8;stroke-width:10.7991;stroke-miterlimit:10;}
	.st4{fill:none;stroke:#343F52;stroke-width:6.1386;stroke-miterlimit:10;}
	.st5{fill:none;stroke:#343F52;stroke-width:5.5462;stroke-miterlimit:10;}
	.st6{fill:none;stroke:#343F52;stroke-width:5.5301;stroke-miterlimit:10;}
	.st7{fill:none;stroke:#343F52;stroke-width:12.0238;stroke-miterlimit:10;}
	.st8{fill:none;stroke:#343F52;stroke-width:12.0735;stroke-miterlimit:10;}
	.st9{fill:none;stroke:#343F52;stroke-width:10.239;stroke-miterlimit:10;}
	.st10{fill:none;stroke:#343F52;stroke-width:11.5928;stroke-miterlimit:10;}
	.st11{fill:#EEA1A6;stroke:#343F52;stroke-width:5.3972;stroke-miterlimit:10;}
	.st12{fill:none;stroke:#343F52;stroke-width:5.1938;stroke-miterlimit:10;}
	.st13{fill:none;stroke:#343F52;stroke-width:5.8966;stroke-miterlimit:10;}
	.st14{fill:#EEA1A6;}
	.st15{fill:#D9F0F4;}
	.st16{fill:none;stroke:#343F52;stroke-width:17.314;stroke-miterlimit:10;}
	.st17{fill:#415E6F;}
	.st18{fill:#56788B;}
	.st19{fill:#90ABBD;}
	.st20{fill:#FF6B81;}
	.st21{fill:#F9B767;}
	.st22{fill:#FCD49B;}
	.st23{fill:#4F5B6B;}
	.st24{fill:#FFFFFF;}
	.st25{fill:#8CAEEC;}
	.st26{fill:none;stroke:#343F52;stroke-width:8.6457;stroke-miterlimit:10;}
	.st27{fill:#FFFFFF;stroke:#8CAEEC;stroke-width:8.6893;stroke-miterlimit:10;}
	.st28{fill:#A2D5F2;}
	.st29{fill:none;stroke:#8CAEEC;stroke-width:8.6893;stroke-miterlimit:10;}
	.st30{fill:none;stroke:#343F52;stroke-width:8.6893;stroke-miterlimit:10;}
</style>
<g>
	<path class="st25" d="M452.81,231.9c1.02,35.71-14.11,63.77-23.69,78.39c5.51,21.74,9.53,37.92,11.31,44.58
		c0.29,1.1,1.08,4.02-0.39,5.61c-1.88,2.04-6.39,0.7-8.13,0.19c-7.67-2.23-22.5-5.88-42.88-10.79
		c-14.63,9.55-42.38,24.4-77.63,23.44c-64.74-1.76-141.42-56.44-141.42-141.42c0-78.1,63.32-141.42,141.42-141.42
		C396.4,90.48,450.96,167.15,452.81,231.9z"/>
	<path class="st26" d="M163.35,224.61c0,75.86,61.5,137.35,137.35,137.35c19,0,37.4-5.15,37.4-5.15c10.09-2.82,17.2-6.07,19.32-7.07
		c9.08-4.25,16.2-8.98,21.33-12.86c6.91,1.83,16.58,4.58,28.05,8.44c11.58,3.89,17.23,6.31,19.55,3.87
		c2.53-2.66-1.03-8.85-5.03-20.32c-3.87-11.1-5.82-20.46-6.85-26.5c4.43-6.37,7.5-12.05,9.56-16.27
		c5.62-11.54,8.11-21.29,9.87-28.36c1.74-6.99,2.77-12.93,3.38-17.19l0,0c1.49-8.74,2.72-21.51,0.72-36.61c0,0-3.82-28.8-21.85-55.3
		c-21.07-30.97-64.46-62.32-115.46-61.39C233.81,88.47,163.35,144.4,163.35,224.61z"/>
	<path class="st27" d="M364.54,276.99c0.05,61.59-42.48,110.85-80.9,127.82c-11.5,5.08-30.64,10.8-52.65,12
		c-13.34,0.73-27.42,1.49-42.32-4.68c-3-1.24-2.2-1.02-19.45-9.54c-4.81-2.38-10.27-5.1-16.93-9.65c-1.65-1.13-3.17-2.23-4.54-3.26
		c-6.95,1.84-16.69,4.59-28.23,8.47c-11.65,3.91-17.34,6.34-19.67,3.89c-2.55-2.67,1.04-8.88,5.06-20.4
		c3.89-11.14,5.85-20.53,6.89-26.6c-4.85-6.41-7.79-12.14-9.62-16.33c-1.9-4.37-1.91-5.51-8.26-23.52c-0.87-2.47-1.2-3.36-1.68-4.94
		c-2.21-7.35-2.99-13.71-3.41-17.25l0,0c-1.36-6.91-2.65-16.78-1.97-28.55c0,0,1.86-32.32,23.23-63.7
		c21.25-31.2,73.82-74.35,138.64-63.81C316.04,147.88,364.49,211.31,364.54,276.99z"/>
	<g>
		<g>
			<path class="st28" d="M292.94,372.16c2.9-1.72,6.07-3.97,9.21-6.91c2.84-2.67,5.12-5.39,6.93-7.94c0.21-0.17,0.8-0.56,1.76-0.42
				c1.73,0.26,3.06,2.01,3.15,2.14l0,0c0.19,0.23,0.79,1.01,0.96,2c0.2,1.18-0.35,1.8-0.47,1.93c-1.79,2.58-4.13,5.41-7.17,8.15
				c-2.99,2.7-6,4.71-8.72,6.22c-0.11,0.13-1.1,1.2-2.81,0.64c-0.72-0.24-1.29-0.67-1.62-0.95c-1.15-0.99-1.88-2.32-1.86-3.42
				C292.31,372.78,292.74,372.33,292.94,372.16z"/>
			<path class="st28" d="M241.23,393.41c1.62-0.2,3.89-0.51,6.56-0.98c6.41-1.12,10.62-1.85,14.81-3.46
				c5.75-2.2,15.37-7.56,19.86-11.26c0.51-0.42,2.61-2.19,4.97-1.56c0.37,0.1,1.52,0.4,2.22,1.48c0.52,0.81,0.53,1.66,0.53,2.05
				c0.02,3.1-4.09,5.55-4.46,5.77c-6.97,4.62-13.22,7.84-18.02,10.04c0,0-10.41,4.77-24.86,5.5c-1.51,0.08-5.01,0.16-6.54-2
				c-0.12-0.17-0.91-1.28-0.79-2.55c0.1-1.12,0.86-1.71,1.34-2.1C238.42,393.09,240.39,393.27,241.23,393.41z"/>
		</g>
		<g>
			<path class="st0" d="M284.81,362c2.9-1.72,6.07-3.97,9.21-6.91c2.84-2.67,5.12-5.39,6.93-7.94c0.21-0.17,0.8-0.56,1.76-0.42
				c1.73,0.26,3.06,2.01,3.15,2.14v0c0.19,0.23,0.79,1.01,0.96,2c0.2,1.18-0.35,1.8-0.47,1.93c-1.79,2.58-4.13,5.41-7.17,8.15
				c-2.99,2.7-6,4.71-8.72,6.22c-0.11,0.13-1.1,1.2-2.81,0.64c-0.72-0.24-1.29-0.67-1.62-0.95c-1.15-0.99-1.88-2.32-1.86-3.42
				C284.18,362.62,284.61,362.17,284.81,362z"/>
			<path class="st0" d="M233.1,383.25c1.62-0.2,3.89-0.51,6.56-0.98c6.41-1.12,10.62-1.85,14.81-3.46
				c5.75-2.2,15.37-7.56,19.86-11.26c0.51-0.42,2.61-2.19,4.97-1.56c0.37,0.1,1.52,0.4,2.22,1.48c0.52,0.81,0.53,1.66,0.53,2.05
				c0.02,3.1-4.09,5.55-4.46,5.77c-6.97,4.62-13.22,7.84-18.02,10.04c0,0-10.41,4.77-24.86,5.5c-1.51,0.08-5.01,0.16-6.54-2
				c-0.12-0.17-0.91-1.28-0.79-2.55c0.1-1.12,0.86-1.71,1.34-2.1C230.29,382.93,232.26,383.11,233.1,383.25z"/>
		</g>
	</g>
	<path class="st26" d="M353.08,269.64c0,75.86-61.5,137.35-137.35,137.35c-19,0-37.4-5.15-37.4-5.15
		c-10.09-2.82-17.2-6.07-19.32-7.07c-9.08-4.25-16.2-8.98-21.33-12.86c-6.91,1.83-16.58,4.58-28.05,8.44
		c-11.58,3.89-17.23,6.31-19.55,3.87c-2.53-2.66,1.03-8.85,5.03-20.32c3.87-11.1,5.82-20.46,6.85-26.5
		c-4.43-6.37-7.5-12.05-9.56-16.27c-5.62-11.54-8.11-21.29-9.87-28.36c-1.74-6.99-2.77-12.93-3.38-17.19l0,0
		c-1.49-8.74-2.72-21.51-0.72-36.61c0,0,3.82-28.8,21.85-55.3c21.07-30.97,64.46-62.32,115.46-61.39
		C282.62,133.5,353.08,189.43,353.08,269.64z"/>
	<g>
		<path class="st29" d="M296.8,199.27c-0.06-0.02-0.31,0.68-0.32,0.71c-0.7,1.87-89.92,121.69-93.08,118.82
			c-3.17-2.87,91.94-117.81,92.93-118.93C296.37,199.83,296.84,199.3,296.8,199.27c-0.04-0.04-0.58,0.44-0.62,0.48
			c-1.23,1.08-115.17,93.36-117.36,90.84c-2.19-2.52,115.46-90.22,117.3-90.98C296.15,199.59,296.82,199.32,296.8,199.27
			c-0.02-0.05-0.67,0.13-0.83,0.17c-49.55,13.52-95.21,38.85-144.18,54.32c-1.7,0.54-7.06,2.15-7.35,5.03
			c-0.21,2.06,2.26,3.7,5.03,5.81c6.5,4.95,11.84,11.26,17.81,16.84c2.27,2.12,5.73,5.42,9.87,9.68c-1.32,5.52-2.58,9.96-3.48,12.97
			c-2.11,7.02-3.16,10.54-4.65,14.32c-2.81,7.17-4.54,9.43-3.48,10.65c0.53,0.61,1.8,0.98,12.19-2.71
			c6.53-2.32,8.59-3.37,13.74-5.03c6.47-2.09,9.7-3.13,11.94-2.52c2.7,0.74,5.75,4.03,11.74,10.58c1.85,2.02,1.48,1.71,4.19,4.71
			c5,5.53,5.28,5.51,9.29,9.87c5.69,6.19,6.38,7.6,7.74,7.35c2.09-0.38,2.64-4.09,4.84-11.03c1.52-4.8,3.7-9.37,5.35-14.13
			c5.11-14.64,49.46-123.29,50.11-126.07C296.72,199.88,296.85,199.28,296.8,199.27z"/>
	</g>
	<g>
		<path class="st30" d="M292.11,192.59c-0.06-0.02-0.31,0.68-0.32,0.71c-0.7,1.87-89.92,121.69-93.08,118.82
			c-3.17-2.87,91.94-117.81,92.93-118.93C291.67,193.15,292.14,192.63,292.11,192.59c-0.04-0.04-0.58,0.44-0.62,0.48
			c-1.23,1.08-115.17,93.36-117.36,90.84c-2.19-2.52,115.46-90.22,117.3-90.98C291.45,192.92,292.12,192.65,292.11,192.59
			c-0.02-0.05-0.67,0.13-0.83,0.17c-49.55,13.52-95.21,38.85-144.18,54.32c-1.7,0.54-7.06,2.15-7.35,5.03
			c-0.21,2.06,2.26,3.7,5.03,5.81c6.5,4.95,11.84,11.26,17.81,16.84c2.27,2.12,5.73,5.42,9.87,9.68c-1.32,5.52-2.58,9.96-3.48,12.97
			c-2.11,7.02-3.16,10.54-4.65,14.32c-2.81,7.17-4.54,9.43-3.48,10.65c0.53,0.61,1.8,0.98,12.19-2.71
			c6.53-2.32,8.59-3.37,13.74-5.03c6.47-2.09,9.7-3.13,11.94-2.52c2.7,0.74,5.75,4.03,11.74,10.58c1.85,2.02,1.48,1.71,4.19,4.71
			c5,5.53,5.28,5.51,9.29,9.87c5.69,6.19,6.38,7.6,7.74,7.35c2.09-0.38,2.64-4.09,4.84-11.03c1.52-4.8,3.7-9.37,5.35-14.13
			c5.11-14.64,49.46-123.29,50.11-126.07C292.02,193.21,292.16,192.61,292.11,192.59z"/>
	</g>
	<g>
		<g>
			<path class="st24" d="M343.28,120.18c-4.86-1.31-10.57-2.52-17.03-3.26c-5.85-0.67-11.18-0.82-15.84-0.71
				c-0.4-0.07-1.43-0.3-2.26-1.19c-1.49-1.6-0.91-3.83-0.87-3.99v0c0.06-0.31,0.3-1.3,1.22-2.08c1.09-0.92,2.35-0.86,2.61-0.84
				c4.68-0.15,10.19-0.01,16.32,0.77c6.03,0.77,11.33,1.99,15.77,3.29c0.26,0.01,2.45,0.15,3.58,1.94c0.47,0.75,0.58,1.5,0.61,1.95
				c0.08,1.59-0.63,3.04-1.86,3.72C344.61,120.31,343.68,120.24,343.28,120.18z"/>
			<path class="st24" d="M403.99,162.28c-1.33-1.6-3.22-3.81-5.55-6.39c-5.58-6.16-9.25-10.21-13.81-13.81
				c-6.25-4.94-18.42-12.4-25.34-15.3c-0.79-0.33-4.06-1.67-5.05-4.44c-0.15-0.43-0.64-1.79,0-3.03c0.47-0.94,1.35-1.35,1.75-1.55
				c3.18-1.52,8.55,1.59,9.03,1.87c9.58,5.04,17.22,10.02,22.81,13.97c0,0,12.11,8.57,22.86,23.32c1.13,1.55,3.63,5.16,2.47,7.81
				c-0.09,0.2-0.69,1.57-2.08,2.06c-1.22,0.43-2.36-0.06-3.1-0.39C405.6,165.37,404.43,163.22,403.99,162.28z"/>
		</g>
		<g>
			<path class="st0" d="M333.77,110.9c-4.86-1.31-10.57-2.52-17.03-3.26c-5.85-0.67-11.18-0.82-15.84-0.71
				c-0.4-0.07-1.43-0.3-2.26-1.19c-1.49-1.6-0.91-3.83-0.87-3.99v0c0.06-0.31,0.3-1.3,1.22-2.08c1.09-0.92,2.35-0.86,2.61-0.84
				c4.68-0.15,10.19-0.01,16.32,0.77c6.03,0.77,11.33,1.99,15.77,3.29c0.26,0.01,2.45,0.15,3.58,1.94c0.47,0.75,0.58,1.5,0.61,1.95
				c0.08,1.59-0.63,3.04-1.86,3.72C335.11,111.03,334.18,110.96,333.77,110.9z"/>
			<path class="st0" d="M394.48,153c-1.33-1.6-3.22-3.81-5.55-6.39c-5.58-6.16-9.25-10.21-13.81-13.81
				c-6.25-4.94-18.42-12.4-25.34-15.3c-0.79-0.33-4.06-1.67-5.05-4.44c-0.15-0.43-0.64-1.79,0-3.03c0.47-0.94,1.35-1.35,1.75-1.55
				c3.18-1.52,8.55,1.59,9.03,1.87c9.58,5.04,17.22,10.02,22.81,13.97c0,0,12.11,8.57,22.86,23.32c1.13,1.55,3.63,5.16,2.47,7.81
				c-0.09,0.2-0.69,1.57-2.08,2.06c-1.22,0.43-2.36-0.06-3.1-0.39C396.1,156.09,394.92,153.94,394.48,153z"/>
		</g>
	</g>
</g>
</svg>
