<?xml version="1.0" encoding="utf-8"?>
<!-- Generator: Adobe Illustrator 25.2.0, SVG Export Plug-In . SVG Version: 6.00 Build 0)  -->
<svg version="1.1" xmlns="http://www.w3.org/2000/svg" xmlns:xlink="http://www.w3.org/1999/xlink" x="0px" y="0px"
	 viewBox="0 0 500 500" style="enable-background:new 0 0 500 500;" xml:space="preserve">
<style type="text/css">
	.st0{fill:#D9F0F4;}
	.st1{fill:none;stroke:#343F52;stroke-width:14.9429;stroke-miterlimit:10;}
	.st2{fill:#343F52;}
	.st3{fill:#415E6F;}
	.st4{fill:#56788B;}
	.st5{fill:#90ABBD;}
	.st6{display:none;fill:#90ABBD;}
	.st7{display:none;fill:none;stroke:#3A4455;stroke-width:5;stroke-miterlimit:10;}
	.st8{fill:#F4C1C6;}
	.st9{fill:none;stroke:#3A4455;stroke-width:7.4714;stroke-miterlimit:10;}
	.st10{fill:#EDF6F7;}
	.st11{fill:none;stroke:#343F52;stroke-width:20.3644;stroke-miterlimit:10;}
	.st12{fill:#FCD49B;}
	.st13{fill:none;stroke:#3A4455;stroke-width:8.3406;stroke-miterlimit:10;}
	.st14{fill:#3A4455;}
	.st15{fill:none;stroke:#3A4455;stroke-width:5.2032;stroke-miterlimit:10;}
	.st16{fill:#FCD49B;stroke:#3A4455;stroke-width:2.7802;stroke-miterlimit:10;}
	.st17{display:none;}
	.st18{display:inline;}
	.st19{display:inline;fill:none;stroke:#A6D8C8;stroke-width:25.6827;stroke-miterlimit:10;}
	.st20{fill:none;stroke:#3A4455;stroke-width:10;stroke-miterlimit:10;}
	.st21{fill:none;stroke:#3A4455;stroke-width:7.6747;stroke-miterlimit:10;}
	.st22{display:inline;fill:#3A4455;}
	.st23{fill:#76CCF6;}
	.st24{fill:none;stroke:#3A4455;stroke-width:11.4962;stroke-miterlimit:10;}
	.st25{fill:#A6D8C8;}
	.st26{fill:none;stroke:#343F52;stroke-width:15.5332;stroke-miterlimit:10;}
	.st27{fill:none;stroke:#A6D8C8;stroke-width:16.5278;stroke-miterlimit:10;}
	.st28{fill:#FFFFFF;stroke:#343F52;stroke-width:15.5332;stroke-miterlimit:10;}
</style>
<g id="Layer_1">
</g>
<g id="Layer_2">
	<g>
		<path class="st10" d="M311.54,455.28h-186.4c-9.14,0-16.62-7.48-16.62-16.62V70.32c0-9.14,7.48-16.62,16.62-16.62h186.4
			c9.14,0,16.62,7.48,16.62,16.62v368.34C328.16,447.8,320.68,455.28,311.54,455.28z"/>
		<path class="st11" d="M301.29,464.69H135.38c-18.86,0-34.16-15.29-34.16-34.16V80.9c0-18.86,15.29-34.16,34.16-34.16h165.91
			c18.86,0,34.16,15.29,34.16,34.16v349.63C335.45,449.4,320.15,464.69,301.29,464.69z"/>
		<g>
			<path class="st2" d="M273.46,83.67c-36.11,0-72.22,0-108.32,0c-0.9-0.44-2.18-1.2-3.38-2.54c-1.95-2.16-2.69-4.68-5.48-15.93
				c-0.58-2.34-1.08-4.38-2.74-6.11c-1.36-1.42-2.93-2.04-4.02-2.34c46.43,0.07,92.87,0.13,139.3,0.2
				c-1.26,0.18-3.03,0.66-4.43,2.15c-1.49,1.58-1.77,3.42-2.33,6.11c-1.36,6.5-2.52,11.84-5.6,15.67
				C275.32,82.26,274.18,83.16,273.46,83.67z"/>
			<path class="st3" d="M250.42,64.99h-62.23c-3.29,0-5.97-2.69-5.97-5.97v-1.36c0-3.29,2.69-5.97,5.97-5.97h62.23
				c3.29,0,5.97,2.69,5.97,5.97v1.36C256.39,62.3,253.71,64.99,250.42,64.99z"/>
		</g>
		<path class="st4" d="M267.98,423.42h-70.06c-3.47,0-6.31-2.84-6.31-6.31v-0.69c0-3.47,2.84-6.31,6.31-6.31h70.06
			c3.47,0,6.31,2.84,6.31,6.31v0.69C274.28,420.58,271.44,423.42,267.98,423.42z"/>
		<path class="st5" d="M205.34,384.02h-47.26c-2.8,0-5.09-2.29-5.09-5.09v-2.3c0-2.8,2.29-5.09,5.09-5.09h47.26
			c2.8,0,5.09,2.29,5.09,5.09v2.3C210.43,381.73,208.14,384.02,205.34,384.02z"/>
		<path class="st5" d="M188.35,354.37h-30.97c-2.42,0-4.4-1.98-4.4-4.4v-4.65c0-2.42,1.98-4.4,4.4-4.4h30.97
			c2.42,0,4.4,1.98,4.4,4.4v4.65C192.75,352.39,190.77,354.37,188.35,354.37z"/>
		<path class="st5" d="M294.12,149.3H144.18c-5.52,0-10.03-4.52-10.03-10.03v-23.76c0-5.52,4.52-10.03,10.03-10.03h149.94
			c5.52,0,10.03,4.52,10.03,10.03v23.76C304.15,144.79,299.64,149.3,294.12,149.3z"/>
	</g>
	<g>
		<path class="st12" d="M391.95,326.19H206.98c-7.53,0-13.69-6.16-13.69-13.69V196.92c0-7.53,6.16-13.69,13.69-13.69
			c22.39,0,138.26-0.11,161.1,0c0.97,0,2.88,0.01,5.4,0c-0.46,0.45-1.06,1.13-1.55,2.06c-2.46,4.71,0.63,10.61,2.58,14.35
			c1.15,2.2,4.69,8.43,12.07,13.45c3.73,2.54,7.92,5.39,13.4,4.82c2.46-0.26,4.4-1.12,5.65-1.82c0,2.38,0,4.22,0,5.01
			c0.01,17.54,0.04,78.48,0,91.39C405.64,313.43,405.53,318.26,391.95,326.19z"/>
		<path class="st13" d="M193.49,208.3c-0.04-1.48-0.11-3.72-0.18-6.46c-0.1-3.98-0.15-5.96-0.13-6.23
			c0.06-1.02,0.63-8.58,6.64-13.18c2.71-2.08,5.67-2.89,7.98-3.18c15.05-0.03,30.1-0.06,45.16-0.09
			c12.38,0.05,22.74,0.07,30.36,0.09c17.04,0.03,27.61,0.05,41.43,0c11.5-0.04,20.98-0.12,27.44-0.18"/>
		<path class="st13" d="M193.49,239.44c0.01,3.3,0.13,30.89,0.07,46.21c-0.05,13.99-0.08,20.98-0.11,21.21
			c-0.09,0.84-0.29,2.58-0.03,4.89c0.21,1.89,0.96,8.48,6.39,12.69c1.16,0.9,3.81,2.68,7.98,3.18c15.05,0.03,30.1,0.06,45.16,0.09
			c12.38-0.05,22.74-0.07,30.36-0.09c22.02-0.04,33.03-0.06,41.43,0c22.7,0.17,31.6,0.59,53.09,0.35c4.99-0.05,9.1-0.13,11.84-0.18
			c1.21-0.06,2.95-0.25,4.93-0.9c1.47-0.48,4.56-1.52,7.26-4.39c2.21-2.35,3.09-4.77,3.59-6.19c1.12-3.17,1.17-5.96,1.08-7.62
			c-0.25-12.8-0.33-23.25-0.36-30.58c-0.02-6.45,0-10.39,0-32.2c0-2.39,0-11.72,0-14.08"/>
		<path class="st14" d="M196.09,235.08c0,0,1.27,1.12,1.48,3.41c0.03,0.34,0,0.39,0.01,3.71c0,0.1,0,0.28,0,0.38
			c-2.76-0.08-5.53-0.16-8.29-0.24c0-0.08-0.01-0.19-0.01-0.32c-0.02-0.84-0.05-2.59,0.22-3.87c0.21-1,0.49-2.36,1.63-3.21
			C192.51,233.9,194.77,233.94,196.09,235.08z"/>
		<path class="st14" d="M196.13,214.92c1.4-1.14,1.53-3.09,1.56-3.5c0.02-0.32,0.02-0.75,0.01-1.37c0-0.53-0.02-1.09-0.05-2.2
			c-0.01-0.18-0.01-0.32-0.01-0.41c-2.78,0.07-5.56,0.14-8.34,0.21c0,0.08,0,0.2,0,0.34c-0.02,2.14-0.03,3.21,0.09,3.92
			c0.08,0.47,0.37,2.19,1.78,3.17C192.58,216.06,194.76,216.03,196.13,214.92z"/>
		<path class="st14" d="M204.34,200.39c0.16,1.79,1.7,2.99,2.03,3.24c0.25,0.2,0.62,0.43,1.13,0.77c0.44,0.29,0.91,0.59,1.85,1.18
			c0.15,0.09,0.27,0.17,0.35,0.22c1.5-2.33,3-4.66,4.5-6.99c-0.07-0.05-0.17-0.13-0.3-0.23c-0.9-0.68-2.18-1.61-3.3-2.1
			c-0.44-0.2-2.02-0.91-3.62-0.29C205.38,196.81,204.18,198.64,204.34,200.39z"/>
		<path class="st14" d="M373.78,215.61c-0.16,1.79-1.7,2.99-2.03,3.24c-0.25,0.2-0.62,0.43-1.13,0.77
			c-0.44,0.29-0.91,0.59-1.85,1.18c-0.15,0.09-0.27,0.17-0.35,0.22c-1.51-2.34-3.01-4.68-4.52-7.02c0.08-0.06,0.19-0.15,0.34-0.25
			c0.91-0.67,2.16-1.6,3.27-2.05c0.67-0.27,2.13-0.87,3.62-0.29C372.74,212.04,373.93,213.86,373.78,215.61z"/>
		<path class="st14" d="M408.37,225.39c0,0,2.03,1.25,1.99,4.62c0,0.17-0.03,1.09-0.01,1.88c0,0.1,0.01,0.38,0.01,0.76
			c0,0.3-0.01,0.55-0.01,0.7c-2.77-0.11-5.55-0.23-8.32-0.34c0-0.23-0.01-0.58,0-1c0.01-1.33,0.03-2.34,0.21-3.24
			c0.18-0.89,0.41-2.03,1.3-2.86C404.73,224.78,406.88,224.47,408.37,225.39z"/>
		<path class="st14" d="M359.69,181.22c0,0-1.24,2.04-4.61,2.01c-0.17,0-1.09-0.02-1.88-0.01c-0.09,0-0.37,0.01-0.76,0.01
			c-0.3,0-0.55,0-0.71,0c0.1-2.78,0.21-5.56,0.31-8.34c0.23-0.01,0.58-0.01,1-0.01c1.33,0.01,2.34,0.02,3.24,0.19
			c0.89,0.18,2.03,0.4,2.87,1.29C360.28,177.58,360.6,179.73,359.69,181.22z"/>
		<path class="st13" d="M209.77,200.9c15.7,10.07,27.62,19.04,35.51,25.29c11.54,9.14,24.06,20.03,40.09,25.02
			c6.58,2.05,12.02,2.56,16.68,2.42c2.19-0.07,8.41-0.41,16.68-3.5c8.66-3.23,13.64-7.27,23.14-14.53
			c5.59-4.27,14.2-10.78,25.29-18.83"/>
		<circle class="st15" cx="405.44" cy="184.06" r="34.62"/>
		<path class="st16" d="M388.33,199.66c0.03-5.18,0.07-10.36,0.1-15.54c0.19-0.96,1.14-5.11,5.08-7.84
			c2.66-1.84,5.36-2.11,6.56-2.15c2.95-0.07,5.9-0.13,8.85-0.2c-2.84-1.36-3.68-4.77-2.29-6.86c1.15-1.73,3.75-2.45,6.03-1.37
			c3.92,3.22,7.84,6.45,11.76,9.67c0.26,0.26,1.11,1.15,1.28,2.59c0.2,1.67-0.65,2.87-0.84,3.13c-3.77,3.2-7.53,6.39-11.3,9.58
			c-2.47,1.79-5.66,1.24-7-0.54c-1.5-2.01-0.79-5.78,2.35-7.37c-1.3-0.02-2.37-0.03-3.09-0.03c-2.62-0.03-3.03-0.02-3.67,0.13
			c-0.48,0.12-2.08,0.54-3.36,1.95c-1.72,1.9-1.68,4.26-1.65,4.84c0.02,3.31,0.04,6.61,0.07,9.92c-0.46,2.28-2.5,3.86-4.71,3.73
			C390.5,203.21,388.77,201.71,388.33,199.66z"/>
	</g>
</g>
<g id="Layer_3">
</g>
<g id="Layer_4">
</g>
</svg>
