<?xml version="1.0" encoding="utf-8"?>
<!-- Generator: Adobe Illustrator 25.2.0, SVG Export Plug-In . SVG Version: 6.00 Build 0)  -->
<svg version="1.1" id="Layer_1" xmlns="http://www.w3.org/2000/svg" xmlns:xlink="http://www.w3.org/1999/xlink" x="0px" y="0px"
	 viewBox="0 0 500 500" style="enable-background:new 0 0 500 500;" xml:space="preserve">
<style type="text/css">
	.st0{fill:#343F52;}
	.st1{fill:none;stroke:#343F52;stroke-width:12.8493;stroke-miterlimit:10;}
	.st2{fill:#A6D8C8;}
	.st3{fill:none;stroke:#A6D8C8;stroke-width:10.7991;stroke-miterlimit:10;}
	.st4{fill:none;stroke:#343F52;stroke-width:6.1386;stroke-miterlimit:10;}
	.st5{fill:none;stroke:#343F52;stroke-width:5.5462;stroke-miterlimit:10;}
	.st6{fill:none;stroke:#343F52;stroke-width:5.5301;stroke-miterlimit:10;}
	.st7{fill:none;stroke:#343F52;stroke-width:12.0238;stroke-miterlimit:10;}
	.st8{fill:none;stroke:#343F52;stroke-width:12.0735;stroke-miterlimit:10;}
	.st9{fill:none;stroke:#343F52;stroke-width:10.239;stroke-miterlimit:10;}
	.st10{fill:none;}
	.st11{font-family:'Swiss721BT-RomanCondensed';}
	.st12{font-size:120.6841px;}
	.st13{fill:none;stroke:#343F52;stroke-width:11.5928;stroke-miterlimit:10;}
	.st14{fill:#EEA1A6;stroke:#343F52;stroke-width:5.3972;stroke-miterlimit:10;}
	.st15{fill:none;stroke:#343F52;stroke-width:5.1938;stroke-miterlimit:10;}
	.st16{fill:none;stroke:#343F52;stroke-width:5.8966;stroke-miterlimit:10;}
	.st17{fill:#EEA1A6;}
	.st18{fill:#D9F0F4;}
	.st19{fill:none;stroke:#343F52;stroke-width:17.314;stroke-miterlimit:10;}
	.st20{fill:#415E6F;}
	.st21{fill:#56788B;}
	.st22{fill:#90ABBD;}
	.st23{fill:#FF6B81;}
	.st24{fill:#F9B767;}
	.st25{fill:#FCD49B;}
	.st26{fill:#4F5B6B;}
	.st27{fill:#FFFFFF;}
	.st28{fill:#8CAEEC;}
	.st29{fill:none;stroke:#343F52;stroke-width:8.6457;stroke-miterlimit:10;}
	.st30{fill:#FFFFFF;stroke:#8CAEEC;stroke-width:8.6893;stroke-miterlimit:10;}
	.st31{fill:#A2D5F2;}
	.st32{fill:none;stroke:#8CAEEC;stroke-width:8.6893;stroke-miterlimit:10;}
	.st33{fill:none;stroke:#343F52;stroke-width:8.6893;stroke-miterlimit:10;}
</style>
<g>
	<g>
		<path class="st4" d="M380.04,98.69c-2.35,2.66-4.69,5.32-7.04,7.98"/>
		<path class="st5" d="M406.65,160.95c-2.9,0.05-5.79,0.11-8.69,0.16"/>
		<path class="st6" d="M383.02,218.33c-1.95-2.12-3.89-4.24-5.84-6.36"/>
		<path class="st6" d="M326.76,242.56c-0.05-2.88-0.11-5.76-0.16-8.64"/>
		<path class="st6" d="M269.43,219.92c1.89-2.17,3.79-4.34,5.68-6.5"/>
		<path class="st6" d="M244.5,161.5c2.88-0.05,5.76-0.11,8.64-0.16"/>
		<path class="st6" d="M269.06,103.17c2.1,1.97,4.2,3.94,6.3,5.91"/>
		<path class="st6" d="M326.41,80.41c0.05,2.88,0.11,5.76,0.16,8.64"/>
	</g>
	<path class="st7" d="M346.44,284.37c-2.17,60.02-43.88,100.4-43.88,100.4c-7.21,6.98-24.99,23.8-53.7,32.35
		c-3.57,1.06-18.74,5.4-39.58,5.06c-10.82-0.18-48.56-1.3-83.31-26.7c-31.44-22.98-57.77-63.9-56.61-112.76
		c1.36-57.62,40.11-97.63,70.88-115.53c28.72-16.71,58.87-19.02,63.52-19.33c15.51-1.03,28.52,0.62,37.71,2.42
		c-0.81,7.04-3.11,34.4,15.06,59.96c18.18,25.58,44.76,32.33,53.58,34.43c12.8,3.04,23.86,2.84,31.27,2.15
		c0.3,0.89,0.81,2.44,1.37,4.38C342.75,251.2,347.09,266.34,346.44,284.37z"/>
	<ellipse class="st8" cx="325.2" cy="161.49" rx="84.48" ry="83.7"/>
	<path class="st9" d="M323.12,284.03c-1.39,48.89-43.82,113.76-113.76,113.76c-62.83,0-113.76-50.93-113.76-113.76
		s50.93-113.76,113.76-113.76c5.26,0,10.53,0.33,10.53,0.33c9.12,0.77,16.52,2.67,21.59,4.27c1.36,7.37,6.34,29.04,25.71,47.48
		c19.4,18.46,41.34,22.34,48.76,23.32C319.66,254.84,323.57,268.13,323.12,284.03z"/>
	<rect x="269.43" y="115.74" class="st10" width="159.31" height="140.49"/>
	<text transform="matrix(1 0 0 1 269.4291 206.4982)" class="st0 st11 st12">24</text>
	<g>
		<ellipse class="st13" cx="209.41" cy="112.39" rx="11.4" ry="11.18"/>
		<path class="st13" d="M93.07,157.88c9.91-9.28,26.36-22.44,49.73-32.36c22.15-9.4,41.98-12.25,55.21-13.13
			c-13.35,0.88-33.79,3.8-56.61,13.73C118.78,135.96,102.8,148.78,93.07,157.88z"/>
	</g>
	<g>
		<ellipse class="st13" cx="379.19" cy="283.52" rx="11.18" ry="11.4"/>
		<path class="st13" d="M333.7,399.85c9.28-9.91,22.44-26.36,32.36-49.73c9.4-22.15,12.25-41.98,13.13-55.21
			c-0.88,13.35-3.8,33.79-13.73,56.61C355.62,374.15,342.81,390.13,333.7,399.85z"/>
	</g>
	<polyline class="st13" points="106.47,235.45 106.47,235.45 285.1,235.45 	"/>
	<g>
		<path class="st14" d="M247.85,349.24h-74.33c-5.3,0-9.6-4.3-9.6-9.6v-5.58c0-5.3,4.3-9.6,9.6-9.6h74.33c5.3,0,9.6,4.3,9.6,9.6
			v5.58C257.45,344.94,253.15,349.24,247.85,349.24z"/>
		<path class="st15" d="M184.47,298.37c17.56,0.01,35.11,0.02,52.67,0.02c0,0.68,0,1.36,0,2.04c-17.54,0-35.08-0.01-52.63-0.01
			C184.5,299.74,184.48,299.05,184.47,298.37z"/>
		<path class="st16" d="M176.74,285.24c22.63,0.01,45.26,0.02,67.89,0.02c0,0.68,0,1.36,0,2.04c-22.61,0-45.22-0.01-67.83-0.01
			C176.78,286.61,176.76,285.93,176.74,285.24z"/>
		<path class="st15" d="M184.29,272.12c17.56,0.01,35.11,0.02,52.67,0.02c0,0.68,0,1.36,0,2.04c-17.54,0-35.08-0.01-52.63-0.01
			C184.32,273.49,184.3,272.8,184.29,272.12z"/>
	</g>
	<path class="st17" d="M115.29,229.65c5.42-9.31,11.26-16.23,15.87-21.01c12.68-13.15,25.9-20.23,33.71-23.76
		c4.37-1.98,12.75-5.42,23.86-7.63c17.6-3.51,31.21-1.78,34.48-1.32c5.49,0.77,9.98,1.88,13.11,2.78c0.29,1.52,0.73,3.53,1.36,5.87
		c0.38,1.4,1.69,6.1,4.22,11.93c1.5,3.45,4.84,11.01,11.38,19.54c2.97,3.87,7.17,8.7,12.88,13.58
		C215.86,229.63,165.57,229.64,115.29,229.65z"/>
</g>
</svg>
